<svg width="50" height="50" viewBox="0 0 50 50" fill="#FA646A" xmlns="http://www.w3.org/2000/svg">
<path d="M5.71429 23.2857H7.22929L10.0057 44.8057C10.0514 45.1621 10.355 45.4286 10.7143 45.4286H27.5286C28.3386 46.3364 29.4971 46.8564 30.7143 46.8571H31.8329C32.6171 46.8564 33.3907 46.6736 34.0929 46.3236C35.1143 45.8157 36.3143 45.8157 37.3357 46.3236C38.0379 46.6736 38.8114 46.8564 39.5957 46.8571H40.7143C43.08 46.855 44.9979 44.9371 45 42.5714V38.2857C44.9979 35.92 43.08 34.0021 40.7143 34H39.5957C38.8114 34.0007 38.0379 34.1836 37.3357 34.5336C36.3143 35.0414 35.1143 35.0414 34.0929 34.5336C33.6857 34.3336 33.2529 34.1893 32.8071 34.105L34.1993 23.2857H35.7143C36.1086 23.2857 36.4286 22.9657 36.4286 22.5714V19.7143C36.4286 19.32 36.1086 19 35.7143 19H32.8571V16.8571C32.8571 16.6679 32.7821 16.4857 32.6479 16.3521L29.2857 12.99V10.7714L30.3686 9.90571L32.2179 13.605L33.4964 12.9664L31.5093 8.99286L32.3929 8.28571H35C35.3943 8.28571 35.7143 7.96571 35.7143 7.57143V4.71429C35.7143 4.32 35.3943 4 35 4H27.8571C24.3086 4.00429 21.4329 6.88 21.4286 10.4286C21.4286 10.8229 21.7486 11.1429 22.1429 11.1429H23.5714V12.99L21.6379 14.9236C21.5036 15.0571 21.4286 15.2393 21.4286 15.4286V19H20V13.2857C19.9986 13.1971 19.9814 13.11 19.9479 13.0279C19.935 13 19.92 12.9729 19.9036 12.9471C19.8864 12.91 19.8664 12.8736 19.8436 12.8393L17.1429 9.46429V4.71429C17.1429 4.32 16.8229 4 16.4286 4H12.1429C11.7486 4 11.4286 4.32 11.4286 4.71429V9.46429L8.72786 12.8393C8.705 12.8736 8.685 12.91 8.66786 12.9471C8.65143 12.9729 8.63643 13 8.62357 13.0279C8.59 13.11 8.57286 13.1971 8.57143 13.2857V19H5.71429C5.32 19 5 19.32 5 19.7143V22.5714C5 22.9657 5.32 23.2857 5.71429 23.2857ZM40.7143 45.4286H39.5957C39.0329 45.4279 38.4786 45.2964 37.975 45.0457C36.5507 44.3379 34.8779 44.3379 33.4536 45.0457C32.95 45.2964 32.3957 45.4279 31.8329 45.4286H30.7143C29.1364 45.4286 27.8571 44.1493 27.8571 42.5714V41.4714C28.6407 42.1793 29.6586 42.5714 30.7143 42.5714H31.8329C32.6171 42.5707 33.3907 42.3879 34.0929 42.0379C35.1143 41.53 36.3143 41.53 37.3357 42.0379C38.0379 42.3879 38.8114 42.5707 39.5957 42.5714H40.7143C41.77 42.5714 42.7879 42.1793 43.5714 41.4714V42.5714C43.5714 44.1493 42.2921 45.4286 40.7143 45.4286ZM37.975 35.8114C38.4786 35.5607 39.0329 35.4293 39.5957 35.4286H40.7143C42.2921 35.4286 43.5714 36.7079 43.5714 38.2857C43.5714 39.8636 42.2921 41.1429 40.7143 41.1429H39.5957C39.0329 41.1421 38.4786 41.0107 37.975 40.76C36.5507 40.0521 34.8779 40.0521 33.4536 40.76C32.95 41.0107 32.3957 41.1421 31.8329 41.1429H30.7143C29.1364 41.1429 27.8571 39.8636 27.8571 38.2857C27.8571 36.7079 29.1364 35.4286 30.7143 35.4286H31.8329C32.3957 35.4293 32.95 35.5607 33.4536 35.8114C34.8779 36.5186 36.5507 36.5186 37.975 35.8114ZM31.3764 34H30.7143C28.3486 34.0021 26.4307 35.92 26.4286 38.2857V42.5714C26.43 43.0586 26.5143 43.5414 26.6786 44H11.3421L8.66929 23.2857H12.1429V36.1429C12.1429 37.7207 13.4221 39 15 39H22.1429C23.7207 39 25 37.7207 25 36.1429V30.1557L26.8657 31.0886C27.9929 31.645 29.3579 31.1821 29.9143 30.055C29.9164 30.05 29.9186 30.0457 29.9214 30.0407C30.1979 29.4921 30.245 28.8564 30.0521 28.2729C29.8614 27.6893 29.445 27.2071 28.895 26.9343L25 24.9871V23.2857H32.7593L31.3764 34ZM22.1429 20.4286H23.5714V25.4286C23.57 25.7007 23.7229 25.95 23.9664 26.0714L28.2521 28.2143C28.4614 28.3171 28.6193 28.5007 28.6914 28.7221C28.7657 28.96 28.74 29.2179 28.62 29.4364C28.4143 29.8486 27.9136 30.0164 27.5014 29.8107C27.5007 29.8107 27.5 29.81 27.4993 29.81L24.5993 28.36C24.245 28.1871 23.8171 28.3336 23.6443 28.6879C23.5964 28.785 23.5714 28.8921 23.5714 29V36.1429C23.5714 36.9321 22.9321 37.5714 22.1429 37.5714V31.1429H20.7143V37.5714H19.2857V31.1429H17.8571V37.5714H16.4286V31.1429H15V37.5714C14.2107 37.5714 13.5714 36.9321 13.5714 36.1429V20.4286H22.1429ZM35 21.8571H25V20.4286H35V21.8571ZM34.2857 6.85714H32.8571V5.42857H34.2857V6.85714ZM27.8571 5.42857H31.4286V7.22857L28.3207 9.71429H22.9079C23.2664 7.25571 25.3729 5.43143 27.8571 5.42857ZM27.8571 11.1429V12.5714H25V11.1429H27.8571ZM22.8571 15.7243L24.5814 14H28.2757L31.4286 17.1529V19H22.8571V15.7243ZM12.4857 10.4286H16.0857L17.8 12.5714H10.7714L12.4857 10.4286ZM12.8571 5.42857H15.7143V9H12.8571V5.42857ZM10 14H18.5714V19H10V14ZM6.42857 20.4286H12.1429V21.8571H6.42857V20.4286Z" />
<path d="M41.4286 36.8569H40V38.2855H41.4286V36.8569Z"/>
<path d="M34.286 36.8569H32.8574V38.2855H34.286V36.8569Z"/>
<path d="M31.4286 37.5713H30V38.9999H31.4286V37.5713Z"/>
<path d="M38.5711 37.5713H37.1426V38.9999H38.5711V37.5713Z"/>
</svg>
