<svg width="50" height="50" viewBox="0 0 50 50" fill="#FA646A" xmlns="http://www.w3.org/2000/svg">
<path d="M10.5781 48H40.1094C40.4982 48 40.8125 47.685 40.8125 47.2969V40.2656C40.8125 36.7767 37.974 33.9375 34.4844 33.9375H16.2031C12.7135 33.9375 9.875 36.7767 9.875 40.2656V47.2969C9.875 47.685 10.1893 48 10.5781 48ZM39.4062 40.2656V46.5938H35.1875V35.4C37.5683 35.7431 39.4062 37.7913 39.4062 40.2656ZM21.125 35.3438H29.5625V40.9688H21.125V35.3438ZM11.2812 40.2656C11.2812 37.7913 13.1192 35.7431 15.5 35.4V39.5625C15.5 39.9506 15.8143 40.2656 16.2031 40.2656C16.592 40.2656 16.9062 39.9506 16.9062 39.5625V35.3438H19.7188V41.6719C19.7188 42.06 20.033 42.375 20.4219 42.375H30.2656C30.6545 42.375 30.9688 42.06 30.9688 41.6719V35.3438H33.7812V46.5938H16.9062V43.7812C16.9062 43.3931 16.592 43.0781 16.2031 43.0781C15.8143 43.0781 15.5 43.3931 15.5 43.7812V46.5938H11.2812V40.2656Z" />
<path d="M15.5 21.2812V21.2827C15.5 23.9116 16.5238 26.3831 18.3828 28.2422C20.2426 30.1013 22.7148 31.125 25.3438 31.125C27.9727 31.125 30.4449 30.1012 32.304 28.2415C34.163 26.3817 35.1875 23.9102 35.1875 21.2812C35.963 21.2812 36.5938 20.6505 36.5938 19.875V18.4688C36.5938 17.9505 36.309 17.502 35.8906 17.258V14.9531C35.8906 10.2218 32.6703 6.03469 28.1562 4.78594V4.40625C28.1562 4.0357 28.0058 3.67289 27.7449 3.41273C27.4834 3.15047 27.1205 3 26.75 3H23.9375C23.567 3 23.2041 3.15047 22.944 3.41133C22.6817 3.67289 22.5312 4.0357 22.5312 4.40625V4.78594C18.0165 6.03398 14.7969 10.2204 14.7969 14.9517V17.258C14.3785 17.502 14.0938 17.9505 14.0938 18.4688V19.875C14.0938 20.6505 14.7245 21.2812 15.5 21.2812ZM31.3098 27.2473C29.7165 28.8412 27.5966 29.7188 25.3423 29.7188C23.0895 29.7188 20.971 28.8412 19.377 27.248C17.7837 25.6547 16.9062 23.5362 16.9062 21.2827V21.2812H33.7812C33.7812 23.5348 32.9037 25.6533 31.3098 27.2473ZM35.1875 19.875H15.5L15.5007 18.4688H35.1875V19.875ZM16.2031 14.9517C16.2031 10.6859 19.223 6.93047 23.3841 6.02273C23.7076 5.95242 23.9375 5.66625 23.9375 5.33578V4.40625H26.75V5.33578C26.75 5.66625 26.9799 5.95242 27.3034 6.02273C31.4645 6.93117 34.4844 10.6873 34.4844 14.9531V17.0625H16.2031V14.9517Z" />
<path d="M26.7498 10.617H25.1797L25.9468 9.33876C26.1465 9.00548 26.0389 8.57376 25.7056 8.37408C25.371 8.17369 24.9406 8.28197 24.741 8.61525L23.3347 10.9588C23.2039 11.176 23.2011 11.4467 23.3256 11.6668C23.45 11.8869 23.6842 12.0233 23.9373 12.0233H25.5074L24.7403 13.3016C24.5406 13.6349 24.6481 14.0666 24.9814 14.2663C25.0946 14.3345 25.2198 14.3668 25.3428 14.3668C25.5819 14.3668 25.8146 14.2452 25.9461 14.0258L27.3524 11.6823C27.4831 11.465 27.486 11.1943 27.3615 10.9742C27.2371 10.7542 27.0029 10.617 26.7498 10.617Z" />
<path d="M16.2031 42.375C16.5915 42.375 16.9062 42.0602 16.9062 41.6719C16.9062 41.2835 16.5915 40.9688 16.2031 40.9688C15.8148 40.9688 15.5 41.2835 15.5 41.6719C15.5 42.0602 15.8148 42.375 16.2031 42.375Z" />
</svg>
