<svg width="50" height="50" viewBox="0 0 50 50" fill="none" xmlns="http://www.w3.org/2000/svg">
    <path d="M39.26 11.815h-.495V6.827c0-.987-.79-1.827-1.827-1.827H12.346c-.988 0-1.828.79-1.828 1.827v4.988h-.296A2.213 2.213 0 008 14.037v28.741C8 44.012 8.988 45 10.222 45H39.21a2.213 2.213 0 002.222-2.222V14.037c0-1.235-.988-2.222-2.173-2.222zM11.851 6.827c0-.247.197-.444.444-.444H36.89c.247 0 .444.197.444.444v4.988H11.852V6.827zm-2.47 7.21c0-.494.396-.84.84-.84H39.21c.494 0 .84.396.84.84v.74H9.382v-.74zM40.1 42.777c0 .495-.395.84-.84.84H10.222a.832.832 0 01-.84-.84V16.112H40.1v26.667z" fill="#FA646A" />
    <path d="M14.37 32.11h19.408c.74 0 1.333-.592 1.333-1.332v-9.729c0-.74-.593-1.333-1.333-1.333H14.37c-.74 0-1.333.592-1.333 1.333v9.729c-.05.74.592 1.333 1.333 1.333zm0-11.06h19.408v9.727H14.37V21.05zM12.099 42.976h25.53c.742 0 1.334-.593 1.334-1.334v-4.987c0-.741-.592-1.334-1.333-1.334H12.099c-.74 0-1.333.593-1.333 1.334v4.987c0 .741.592 1.334 1.333 1.334zm0-6.321h25.53v4.987H12.1v-4.987zM28.543 7.963h-7.851c-.297 0-.445.247-.445.543v1.63c0 .296.148.543.445.543h7.851c.297 0 .445-.247.445-.543v-1.63c.05-.296-.099-.543-.445-.543zm-.395 1.827h-7.012v-.889h7.012v.89zM16.296 9.1a.889.889 0 100-1.779.889.889 0 000 1.778zM16.296 11.173a.889.889 0 100-1.778.889.889 0 000 1.778zM33.235 11.173a.889.889 0 100-1.778.889.889 0 000 1.778zM33.235 9.1a.889.889 0 100-1.779.889.889 0 000 1.778z" fill="#FA646A" />
</svg>
