<svg width="50" height="50" viewBox="0 0 50 50" fill="#FA646A" xmlns="http://www.w3.org/2000/svg">
<path d="M18.4456 15.4222C18.5302 15.4222 18.6162 15.4061 18.6994 15.3721C18.7343 15.3576 22.2382 13.9676 26.9866 15.3933C27.3409 15.5003 27.7166 15.2989 27.8232 14.9433C27.9301 14.588 27.7287 14.2133 27.3731 14.1067C22.1746 12.5445 18.3516 14.0627 18.1915 14.128C17.8481 14.2681 17.6832 14.6605 17.8234 15.004C17.9297 15.2644 18.1807 15.4222 18.4456 15.4222Z" />
<path d="M26.9 39.6094H19.0615C18.6905 39.6094 18.3896 39.9102 18.3896 40.2813C18.3896 40.6523 18.6905 40.9531 19.0615 40.9531H26.9C27.271 40.9531 27.5718 40.6523 27.5718 40.2813C27.5718 39.9102 27.271 39.6094 26.9 39.6094Z" />
<path d="M26.9 42.2969H19.0615C18.6905 42.2969 18.3896 42.5977 18.3896 42.9688C18.3896 43.3398 18.6905 43.6406 19.0615 43.6406H26.9C27.271 43.6406 27.5718 43.3398 27.5718 42.9688C27.5718 42.5977 27.271 42.2969 26.9 42.2969Z" />
<path d="M40.3184 44.2026C40.2475 44.9772 39.494 45.6566 38.7056 45.6566H36.5499L36.521 45.7298C36.334 46.2064 36.0657 46.6342 35.7393 47.0003H38.7056C40.1891 47.0003 41.5211 45.8036 41.6566 44.3253C41.8668 42.0302 41.9338 40.5864 41.9531 39.7773C41.5266 39.985 41.068 40.0995 40.5989 40.1028C40.57 40.9282 40.4975 42.251 40.3184 44.2026Z" />
<path d="M46.5666 23.8948L36.972 20.1699C36.8936 20.1394 36.8119 20.125 36.7312 20.125C36.4628 20.125 36.203 20.2841 36.0885 20.5433L30.9287 32.2598C30.3336 33.6114 30.6928 35.0349 31.7311 35.4377L32.9978 35.9295C33.3367 36.0611 33.5024 36.4465 33.3675 36.7903L30.7414 43.4805C30.2021 44.8551 30.7781 46.3633 32.0287 46.8488C32.2931 46.9515 32.5664 47 32.8381 47C33.8521 47 34.8445 46.3222 35.27 45.2383L37.8961 38.5481C38.0001 38.283 38.2527 38.12 38.5188 38.12C38.5975 38.12 38.6773 38.1341 38.7547 38.1643C39.089 38.2939 39.5332 38.4664 40.0207 38.6557C40.2021 38.7263 40.3897 38.7597 40.5781 38.7597C41.4678 38.7597 42.3775 38.0104 42.7761 36.8592L46.9622 24.7648C47.0826 24.4158 46.9058 24.0263 46.5666 23.8948ZM41.5062 36.4196C41.2709 37.0994 40.8133 37.416 40.5781 37.416C40.5525 37.416 40.5298 37.412 40.5072 37.4032L40.2034 37.2851L39.2412 36.9117C39.0096 36.8218 38.7665 36.7762 38.5188 36.7762C37.6862 36.7762 36.9506 37.2788 36.6452 38.057L34.0191 44.7475C33.8091 45.2826 33.3236 45.6563 32.8381 45.6563C32.7268 45.6563 32.6179 45.6363 32.5149 45.5962C32.2219 45.4824 32.0684 45.2485 31.991 45.0723C31.8466 44.743 31.847 44.3414 31.9923 43.9717L34.6185 37.2808C34.8159 36.7779 34.8051 36.229 34.5889 35.7359C34.374 35.2461 33.9817 34.8699 33.484 34.677L32.2173 34.1848C32.1547 34.1609 32.1015 34.096 32.0585 33.9923C31.9588 33.7522 31.9329 33.3135 32.1586 32.8014L33.0385 30.8032L42.2171 34.3659L41.5062 36.4196ZM42.6567 33.0954L33.5808 29.5723L37.0697 21.6492L38.1566 22.0711L37.3092 24.2307C37.1734 24.5762 37.3437 24.9659 37.6891 25.1014C37.7698 25.1332 37.8528 25.1483 37.9342 25.1483C38.2025 25.1483 38.4561 24.9863 38.5598 24.7215L39.4092 22.5576L40.6522 23.0402L39.3176 26.4399C39.1818 26.785 39.3521 27.1751 39.6975 27.3106C39.7779 27.3424 39.8609 27.3575 39.9426 27.3575C40.211 27.3575 40.4645 27.1955 40.5682 26.9307L41.9048 23.5264L43.1474 24.0089L42.3001 26.1683C42.1643 26.5137 42.3345 26.9035 42.68 27.039C42.7607 27.0708 42.8437 27.0859 42.925 27.0859C43.1934 27.0859 43.447 26.9238 43.5506 26.6591L44.3997 24.4951L45.4875 24.9174L42.6567 33.0954Z" />
<path d="M45.9922 37.9902C45.6211 37.9902 45.3203 38.2911 45.3203 38.6621V39.273C45.3203 39.644 45.6211 39.9449 45.9922 39.9449C46.3632 39.9449 46.6641 39.644 46.6641 39.273V38.6621C46.6641 38.2911 46.3632 37.9902 45.9922 37.9902Z" />
<path d="M43.6406 41.625C43.2696 41.625 42.9688 41.9258 42.9688 42.2969V43.6406C42.9688 44.0117 43.2696 44.3125 43.6406 44.3125C44.0117 44.3125 44.3125 44.0117 44.3125 43.6406V42.2969C44.3125 41.9258 44.0117 41.625 43.6406 41.625Z" />
<path d="M45.9922 41.625C45.6211 41.625 45.3203 41.9258 45.3203 42.2969V44.9844C45.3203 45.3554 45.6211 45.6563 45.9922 45.6563C46.3632 45.6563 46.6641 45.3554 46.6641 44.9844V42.2969C46.6641 41.9258 46.3632 41.625 45.9922 41.625Z" />
<path d="M43.1669 45.5151C43.0393 45.6428 42.9688 45.814 42.9688 45.9921C42.9688 46.1703 43.0393 46.3415 43.1636 46.4659C43.2913 46.5935 43.4625 46.664 43.6406 46.664C43.8188 46.664 43.99 46.5935 44.1144 46.4659C44.242 46.3415 44.3125 46.1703 44.3125 45.9921C44.3125 45.814 44.242 45.6428 44.1144 45.5151C43.8657 45.2664 43.4156 45.2664 43.1669 45.5151Z"/>
<path d="M29.3566 45.6563H13.0705V38.8171C13.0705 38.1426 13.6644 37.5938 14.3944 37.5938H31.5671C31.5808 37.5938 31.5936 37.5971 31.6074 37.5977L31.8685 36.9324L31.2452 36.6903C30.9683 36.583 30.7135 36.4338 30.4851 36.25H30.2033V35.9879C29.9431 35.7153 29.7293 35.3905 29.576 35.0214C29.1656 34.0317 29.2106 32.8277 29.6991 31.7182L30.2033 30.5732V30.5729L30.5149 29.8656C29.3264 29.1402 28.6994 27.9221 28.374 26.9556C30.2728 24.8803 31.4027 22.1105 32.1425 19.4125C32.2045 19.1861 32.2583 18.9571 32.3068 18.7268C32.4656 18.6231 32.5841 18.4358 32.6152 18.1947C32.8334 16.5052 32.9371 15.6781 32.8708 13.8721C32.7681 11.0895 32.1444 8.42625 30.4382 6.67669C29.6174 5.83452 28.6148 5.34473 27.6457 4.92974C26.1146 4.27624 24.4802 4 22.853 4C21.8765 4 20.9028 4.0994 19.9549 4.27624C19.2249 4.41173 18.5016 4.62955 17.7975 4.92974C16.8289 5.34473 15.8262 5.83452 15.0049 6.67669C13.3992 8.32292 12.912 11.5488 12.7757 14.1723C12.7452 14.7605 12.6417 15.0249 12.951 18.1898C12.9744 18.4283 13.0818 18.6149 13.231 18.7199C13.6277 21.6846 14.7698 24.7271 16.661 26.8858C16.8048 27.0498 16.9587 27.205 17.1175 27.3549C16.6206 28.5956 15.6292 30.0627 13.6715 30.4144C13.6715 30.4144 4.46552 31.8953 4.01654 38.9428C4.01654 38.9428 3.88713 39.9388 4.35231 44.3316C4.50865 45.8072 5.5381 47 7.0216 47H11.7267H30.0468C29.8421 46.7451 29.6663 46.462 29.5301 46.1517C29.4596 45.9913 29.4048 45.8249 29.3566 45.6563ZM14.1008 14.4977C14.107 14.4134 14.113 14.3308 14.1177 14.2422C14.3322 10.1115 15.2418 8.35832 15.967 7.61493C16.6454 6.91913 17.5407 6.50183 18.3246 6.16589C18.9317 5.90705 19.5627 5.71577 20.2013 5.59735C21.1026 5.42905 21.9948 5.34375 22.853 5.34375C24.4059 5.34375 25.8407 5.6203 27.1169 6.16488C27.9026 6.50149 28.7979 6.9188 29.4763 7.61493C30.7308 8.90127 31.4211 11.0232 31.528 13.9213C31.5805 15.3569 31.5214 16.1151 31.3765 17.2866C30.7082 17.1278 29.7958 16.9313 28.707 16.7473L27.5276 16.5481L27.193 17.696C27.0772 18.093 26.9184 18.4965 26.7941 18.7662C25.6352 18.5208 24.2411 18.3964 22.649 18.3964C20.365 18.3964 18.4671 18.651 18.3874 18.6618L18.3334 18.6704C18.2595 18.5779 18.1082 18.3328 17.9578 17.7511L17.6404 16.5245L16.3972 16.7692C15.5501 16.9362 14.7981 17.1121 14.2134 17.2594C14.04 15.3186 14.0734 14.8681 14.1008 14.4977ZM14.5617 18.5572C15.1415 18.4115 15.8574 18.2452 16.6569 18.0877C16.8153 18.7002 17.2241 20.0289 18.2649 20.0289C18.3607 20.0289 18.4617 20.0174 18.5685 19.9935C18.5685 19.9935 20.4296 19.7402 22.649 19.7402C23.9368 19.7402 25.345 19.8255 26.5808 20.0948C26.6635 20.1129 26.7875 20.125 26.9243 20.125C27.2055 20.125 27.5401 20.0728 27.6785 19.9091C27.9502 19.588 28.3038 18.6865 28.4829 18.0723C29.4724 18.2396 30.3106 18.4168 30.9638 18.57C30.9283 18.7327 30.8909 18.8951 30.8466 19.0572C29.8283 22.7702 28.3809 25.3583 26.4214 26.9691C25.4656 27.7548 24.1668 28.1875 22.7641 28.1875C20.8047 28.1875 18.8534 27.3497 17.6717 26.0003C16.0619 24.1622 14.9436 21.4353 14.5617 18.5572ZM18.2152 28.2118C19.5522 29.0684 21.1684 29.5313 22.7641 29.5313C24.3982 29.5313 26.0097 29.0474 27.2747 28.0071C27.2901 27.9946 27.3042 27.9809 27.3193 27.9681C27.6418 28.7453 28.1293 29.5854 28.8595 30.2875V36.25H16.4298V30.6001C17.2756 29.9148 17.8403 29.0392 18.2152 28.2118ZM7.0216 45.6563C6.20803 45.6563 5.76593 44.9198 5.68853 44.1902C5.29256 40.4499 5.33963 39.2843 5.35078 39.1091L5.35293 39.1009L5.3575 39.0281C5.73217 33.1482 13.8057 31.7542 13.8849 31.7411L13.897 31.7392L13.909 31.7372C14.3378 31.6601 14.7267 31.5407 15.0861 31.3934V36.25H14.3944C12.921 36.25 11.7267 37.3996 11.7267 38.8171V45.6563H7.0216Z"/>
<path d="M45.9922 31.8828C45.9669 31.8828 45.9426 31.8874 45.918 31.8904L45.3203 33.6173V36.8303C45.3203 37.2014 45.6211 37.5022 45.9922 37.5022C46.3632 37.5022 46.6641 37.2014 46.6641 36.8303V32.5547C46.6641 32.1836 46.3632 31.8828 45.9922 31.8828Z" />
<path d="M43.908 37.6499C43.6731 38.1899 43.3506 38.661 42.9688 39.0432V39.6094C42.9688 39.9805 43.2696 40.2813 43.6406 40.2813C44.0117 40.2813 44.3125 39.9805 44.3125 39.6094V38.2657C44.3125 37.9898 44.1458 37.7532 43.908 37.6499Z" />
</svg>
