<svg width="50" height="50" viewBox="0 0 50 50" fill="#FA646A" xmlns="http://www.w3.org/2000/svg">
<path d="M34.2304 28.762H32.7931C30.8767 27.7124 31.0732 25.5072 31.2073 24.7272C32.8825 23.8084 34.207 22.357 34.9734 20.6005C35.7399 18.844 35.9048 16.8816 35.4425 15.0208H36.2139C36.5158 15.035 36.8176 14.989 37.1018 14.8854C37.386 14.7819 37.6469 14.6227 37.8696 14.4173C38.0923 14.2119 38.2724 13.9641 38.3993 13.6884C38.5263 13.4127 38.5976 13.1145 38.6093 12.8109C38.597 12.5075 38.5252 12.2096 38.398 11.9342C38.2709 11.6587 38.0908 11.4113 37.8683 11.206C37.6457 11.0006 37.385 10.8415 37.1011 10.7377C36.8172 10.6338 36.5157 10.5874 36.2139 10.6009H34.1537C33.1333 6.6866 30.024 4 26.426 4C22.2626 4 18.7317 7.7025 18.3676 12.4353C18.345 12.5592 18.3337 12.6849 18.3341 12.8109C18.3293 12.8621 18.3293 12.9137 18.3341 12.965V13.0179C18.3341 13.095 18.3341 13.172 18.3341 13.249C18.3337 13.3567 18.3572 13.463 18.4028 13.5605C18.4484 13.6579 18.5149 13.7439 18.5976 13.8123C18.6687 13.9349 18.7504 14.0509 18.8419 14.159C18.147 16.1054 18.1652 18.237 18.8931 20.1712C19.621 22.1054 21.011 23.7156 22.8136 24.7128C22.9477 25.4783 23.1442 27.7075 21.2278 28.762H19.6564C19.4839 28.762 19.3162 28.762 19.1437 28.786C19.1633 28.7008 19.1729 28.6135 19.1725 28.526C19.1725 26.889 16.3698 26.1524 13.5862 26.1524C10.8027 26.1524 8 26.889 8 28.526C8.00194 28.6349 8.01641 28.7431 8.04312 28.8486C8.01636 28.9228 8.0018 29.0008 8 29.0797C8 32.397 9.8493 35.1751 12.3118 35.8973V37.2984C11.3537 37.9676 10.7021 39.3735 10.7021 40.9431C10.7021 42.5127 11.3297 43.9234 12.3118 44.5927V46.0371C12.3054 46.1576 12.3228 46.2783 12.3629 46.392C12.4031 46.5058 12.4653 46.6105 12.5459 46.7C12.6265 46.7895 12.7239 46.8621 12.8326 46.9136C12.9413 46.9651 13.059 46.9945 13.179 47H13.9695C14.1078 46.9981 14.2432 46.9599 14.3624 46.8893C14.4658 46.9492 14.5831 46.9808 14.7025 46.9807H39.0836C39.5919 46.9807 40.0793 46.7778 40.4387 46.4167C40.7981 46.0555 41 45.5656 41 45.0549V35.5796C40.9975 33.7747 40.2839 32.0443 39.0153 30.7667C37.7467 29.4891 36.0264 28.7683 34.2304 28.762ZM14.8558 44.5927C15.814 43.9234 16.4608 42.5127 16.4608 40.9431C16.4608 39.3735 15.8332 37.9676 14.8558 37.2984V35.8973C15.6081 35.6489 16.3022 35.2494 16.8961 34.7229C17.4899 34.1965 17.971 33.5543 18.3101 32.8352V45.546H14.8558V44.5927ZM19.7474 35.3918H34.2496V45.5026H19.7474V35.3918ZM34.2496 30.2064V33.9474H19.7474V30.2064H34.2496ZM34.2496 17.0767C34.2493 18.0024 34.0721 18.9193 33.7274 19.7777C33.4734 18.2056 33.4091 16.6084 33.5357 15.0208H33.9573C34.1566 15.6878 34.2582 16.3803 34.2591 17.0767H34.2496ZM19.7618 12.6809V12.5846C20.0636 8.58359 22.9765 5.44441 26.426 5.44441C29.5305 5.44441 32.1751 7.91916 32.9033 11.4676C32.9364 11.6307 33.0246 11.7773 33.153 11.8826C33.2813 11.9879 33.4419 12.0454 33.6076 12.0453H36.2378C36.4656 12.0209 36.6937 12.0875 36.873 12.2307C37.0523 12.374 37.1683 12.5824 37.196 12.8109C37.1695 13.0399 37.0538 13.2491 36.8743 13.3926C36.6947 13.536 36.4658 13.6022 36.2378 13.5764H20.6768C20.456 13.578 20.24 13.5107 20.0588 13.3838C19.9286 13.2916 19.8285 13.1625 19.7713 13.0131L19.7426 12.9457V12.8687V12.8109C19.7452 12.7671 19.7516 12.7236 19.7618 12.6809ZM20.0588 14.9438C20.1115 14.9438 20.1642 14.9438 20.2169 14.9727L20.3271 14.9968C20.4431 15.0115 20.5599 15.0196 20.6768 15.0208H20.7583C20.8493 16.3738 20.8828 18.6704 20.4517 20.2255C19.9795 19.2436 19.7339 18.1673 19.733 17.0767C19.737 16.3535 19.8467 15.6349 20.0588 14.9438ZM21.4242 21.7614C22.3824 19.9222 22.3105 16.5808 22.2147 15.0208H32.0984C32.0074 16.4893 31.926 19.614 32.7692 21.487C32.1122 22.3628 31.2666 23.078 30.2957 23.5791C29.3249 24.0802 28.2538 24.3542 27.1627 24.3806C26.0716 24.407 24.9887 24.1851 23.9949 23.7316C23.0012 23.278 22.1224 22.6045 21.4242 21.7614ZM24.2988 25.4013C25.1686 25.692 26.0794 25.8399 26.9961 25.8394C27.9056 25.8385 28.8094 25.6939 29.6742 25.4109C29.6131 26.61 29.9501 27.7956 30.6324 28.7812H23.3598C24.0428 27.7838 24.375 26.5859 24.3036 25.3772L24.2988 25.4013ZM13.5862 27.5968C16.0536 27.5968 17.4621 28.2227 17.716 28.526C17.4621 28.8294 16.0536 29.4553 13.5862 29.4553C11.1189 29.4553 9.71037 28.8294 9.46124 28.526C9.71037 28.2227 11.1237 27.5968 13.5862 27.5968ZM9.52831 30.2352C10.8271 30.7131 12.2035 30.9418 13.5862 30.9093C14.9684 30.9456 16.345 30.7202 17.6442 30.2449C17.2465 32.7581 15.5793 34.6503 13.5862 34.6503C11.5932 34.6503 9.92596 32.7485 9.52831 30.2352ZM13.5862 36.0851C13.6916 36.0851 13.797 36.0851 13.8976 36.0851V36.9229C13.6926 36.8939 13.4846 36.8939 13.2796 36.9229V36.0658C13.3802 36.0755 13.4904 36.0851 13.5862 36.0851ZM13.1694 38.4539C13.2939 38.3731 13.4381 38.3281 13.5862 38.3239C13.7346 38.3268 13.8791 38.3719 14.003 38.4539C14.4821 38.7524 15.0235 39.6624 15.0235 40.9431C15.0235 42.2238 14.4965 43.1338 14.003 43.4275C13.8801 43.5113 13.7349 43.5561 13.5862 43.5561C13.4376 43.5561 13.2924 43.5113 13.1694 43.4275C12.6903 43.1242 12.149 42.219 12.149 40.9335C12.149 39.648 12.6807 38.7524 13.1694 38.4539ZM13.2796 46.0226V44.9875C13.3811 45.0027 13.4836 45.0107 13.5862 45.0115C13.6889 45.0109 13.7914 45.0028 13.8929 44.9875V46.0226H13.2796ZM39.5819 45.0212C39.5819 45.1489 39.5314 45.2713 39.4416 45.3616C39.3517 45.4519 39.2299 45.5026 39.1028 45.5026H35.6868V30.4278C36.804 30.7462 37.788 31.4208 38.4905 32.35C39.193 33.2791 39.5761 34.4126 39.5819 35.5796V45.0212Z" />
</svg>
